# xmcd
#
# Track frame offsets: 
#        150
#        10354
#        21977
#        33050
#        42146
#        51914
#        64189
#        75431
#        87902
#        98465
#        109049
#        117341
#        129307
#        141024
#        153108
#        163698
#        173100
#        182439
#        193822
#        204706
#
# Disc length: 2842 seconds
#
# Revision: 2
# Processed by: cddbd v1.5.2PL0 Copyright (c) Steve Scherf et al.
# Submitted via: ExactAudioCopy v1.1
#
DISCID=fa0b1814
DTITLE=Various Artist - Rhythm and Blues Goes Rock 'n' Roll - CD10
DYEAR=2002
DGENRE=Blues
TTITLE0=J. L. Smith - If It's Too Late (mono)
TTITLE1=Homesick James and Hound Dog Taylor - Set A Date (mono)
TTITLE2=Johnny Fuller - No More (mono)
TTITLE3=Jay Nelson - Don't You Wanna Man Like Me (mono)
TTITLE4=Schoolboy Cleve - She's Gone (mono)
TTITLE5=Baby Calloway with Roland Mitchell and His Band - Midnight Blues
TTITLE5=(mono)
TTITLE6=Guitar Shorty - Ways Of A Man (mono)
TTITLE7=Nat The Cool Cat - Come By Here (mono)
TTITLE8=Paul Perryman - Just To Be Close To You (mono)
TTITLE9=B.B. Brown - I Weep (mono)
TTITLE10=The Carter Brothers - I'm Not To Blame (mono)
TTITLE11=Eugene Jefferson - Don't Cry No More (mono)
TTITLE12=Elton Anderson - I Love You (mono)
TTITLE13=Harmonica Fats - My Baby Didn't Come Home (mono)
TTITLE14=Rosco Gordon - Tummer Tee (mono)
TTITLE15=Billy Gayles - Do Right Baby (mono)
TTITLE16=Joe Boot and The Fabulous Minds - Rock And Roll Radio (mono)
TTITLE17=Otis Riley - Little Miss Bibbitty Boppity Boom (mono)
TTITLE18=Sonny Boy Williams - Alice Mae Blues (mono)
TTITLE19=Hank Moore - Knock Kneed Rooster (mono)
EXTD=
EXTT0=
EXTT1=
EXTT2=
EXTT3=
EXTT4=
EXTT5=
EXTT6=
EXTT7=
EXTT8=
EXTT9=
EXTT10=
EXTT11=
EXTT12=
EXTT13=
EXTT14=
EXTT15=
EXTT16=
EXTT17=
EXTT18=
EXTT19=
PLAYORDER=
